<svg xmlns="http://www.w3.org/2000/svg" viewBox="0 0 268.56 72.3">
  <defs>
    <style>
      .cls-1 {
        fill: #3f3f3f;
      }

      .cls-2 {
        fill: #4fe870;
      }
    </style>
  </defs>
  <title>densologo</title>
  <g id="Layer_2" data-name="Layer 2">
    <g id="Layer_1-2" data-name="Layer 1">
      <g>
        <path class="cls-1" d="M193.77,60.16"/>
        <g>
          <path class="cls-1" d="M0,.72H14.56C27.78.72,36.92,9.8,36.92,21.64v.12c0,11.84-9.14,21-22.36,21H0ZM4.75,5.11v33.3h9.81C25.2,38.41,32,31.2,32,21.88v-.12C32,12.44,25.2,5.11,14.56,5.11Z"/>
          <path class="cls-1" d="M48.2.72H78.56V5.05H52.94V19.41h23v4.33h-23V38.47h26V42.8H48.2Z"/>
          <path class="cls-1" d="M92.67.72h4.45l26.51,33.72V.72h4.63V42.8h-3.8L97.3,8.3V42.8H92.67Z"/>
          <path class="cls-1" d="M139.18,36.67l2.95-3.49c4.39,4,8.6,6,14.43,6,5.65,0,9.38-3,9.38-7.15v-.12c0-3.91-2.1-6.13-10.94-8-9.68-2.1-14.12-5.23-14.12-12.14V11.6C140.87,5,146.7.12,154.69.12a22,22,0,0,1,14.79,5.17L166.71,9a18.48,18.48,0,0,0-12.15-4.61c-5.47,0-9,3-9,6.79v.12c0,4,2.16,6.19,11.42,8.18s13.7,5.47,13.7,11.9v.12c0,7.21-6,11.9-14.37,11.9A24.62,24.62,0,0,1,139.18,36.67Z"/>
          <path class="cls-1" d="M180,21.88v-.12C180,10.16,188.77,0,201.56,0S223,10,223,21.64v.12c0,11.6-8.72,21.76-21.52,21.76S180,33.48,180,21.88Zm38,0v-.12c0-9.56-7-17.37-16.59-17.37S185,12.08,185,21.64v.12c0,9.56,7,17.37,16.59,17.37S218,31.44,218,21.88Z"/>
          <path class="cls-1" d="M233.56,25.19V.72h4.75V24.88c0,9.08,4.87,14.19,12.86,14.19,7.75,0,12.68-4.69,12.68-13.88V.72h4.71v24.1c0,12.26-7,18.63-17.55,18.63S233.56,37.09,233.56,25.19Z"/>
        </g>
        <circle class="cls-2" cx="201.42" cy="21.77" r="4.2" transform="translate(-1.05 28.92) rotate(-8.19)"/>
        <g>
          <path class="cls-1" d="M31.92,56.63h6.86a6.2,6.2,0,0,1,4.44,1.54,4.65,4.65,0,0,1,1.28,3.32h0a4.62,4.62,0,0,1-3.65,4.66L45,72H41.79L38,66.63H34.62V72h-2.7Zm6.64,7.63c1.94,0,3.17-1,3.17-2.57h0c0-1.65-1.19-2.55-3.19-2.55H34.6v5.17Z"/>
          <path class="cls-1" d="M55.68,56.52h2.51L65,72H62.11l-1.55-3.69h-7.3L51.68,72H48.91Zm3.88,9.39L56.9,59.75l-2.64,6.16Z"/>
          <path class="cls-1" d="M70,56.63h5.74c4.84,0,8.18,3.32,8.18,7.65h0c0,4.33-3.34,7.7-8.18,7.7H70Zm2.7,2.46V69.56h3a5,5,0,0,0,5.34-5.19h0a5,5,0,0,0-4.86-5.24h-.48Z"/>
          <path class="cls-1" d="M89.78,56.63h2.7V72h-2.7Z"/>
          <path class="cls-1" d="M99.23,56.63h2.51L110,67.28V56.63h2.66V72h-2.27l-8.49-11V72H99.23Z"/>
          <path class="cls-1" d="M117.9,64.37h0a7.84,7.84,0,0,1,7.68-8h.26a8.31,8.31,0,0,1,5.92,2.09l-1.72,2a6,6,0,0,0-4.31-1.65,5.21,5.21,0,0,0-5,5.41v0h0a5.14,5.14,0,0,0,4.77,5.49H126a6.28,6.28,0,0,0,3.72-1.17V65.78h-3.94V63.42h6.55v6.47a9.82,9.82,0,0,1-6.42,2.4,7.64,7.64,0,0,1-8-7.3Q117.89,64.68,117.9,64.37Z"/>
          <path class="cls-1" d="M145.07,56.63h5.74c4.84,0,8.18,3.32,8.18,7.65h0c0,4.33-3.34,7.7-8.18,7.7h-5.74Zm2.7,2.46V69.56h3a5,5,0,0,0,5.34-5.19h0a5.05,5.05,0,0,0-4.86-5.24h-.48Z"/>
          <path class="cls-1" d="M164.68,56.63h11.41V59h-8.71v4h7.72v2.42h-7.72V69.6h8.82V72H164.68Z"/>
          <path class="cls-1" d="M181,69.78l1.63-1.94a7.13,7.13,0,0,0,4.86,2c1.67,0,2.73-.79,2.73-1.94h0c0-1.1-.62-1.69-3.48-2.35-3.28-.79-5.12-1.76-5.12-4.6h0c0-2.64,2.2-4.46,5.26-4.46a8.54,8.54,0,0,1,5.59,1.94l-1.45,2a7,7,0,0,0-4.18-1.58c-1.58,0-2.51.81-2.51,1.83h0c0,1.19.7,1.71,3.67,2.42,3.26.79,4.93,2,4.93,4.51h0c0,2.88-2.27,4.6-5.5,4.6A9.48,9.48,0,0,1,181,69.78Z"/>
          <path class="cls-1" d="M198.76,56.63h2.7v7.74l7.32-7.74h3.34l-6.42,6.62L212.42,72h-3.3l-5.26-6.9-2.4,2.46V72h-2.7Z"/>
        </g>
        <polygon class="cls-1" points="14.15 56.63 14.15 59.14 19.03 59.14 19.03 69.76 21.76 69.76 21.76 59.14 26.64 59.14 26.64 56.63 14.15 56.63"/>
        <rect class="cls-2" x="5.52" y="63.74" width="2.47" height="8.3"/>
        <rect class="cls-2" x="0.01" y="59.38" width="2.47" height="12.66"/>
      </g>
    </g>
  </g>
</svg>
